<svg width="1280" height="1231" viewBox="0 0 1280 1231" fill="none" xmlns="http://www.w3.org/2000/svg">
<path d="M619 0.399982C618.7 0.599982 611.3 1.59998 602.5 2.49998C486.4 14.4 385.4 71.6 317.1 164C278 216.9 251.3 282.4 242.6 347C233.4 415.2 241.8 485.6 266.6 548.4C297.1 625.3 347.8 688.3 416.8 735C423.7 739.7 429.4 743.9 429.3 744.5C429.3 745 427.3 746 424.9 746.7C349 766.8 304.6 783 253.5 809.1C187.5 842.7 132.4 884.3 90.6 932C53.6 974.2 27.9 1019.8 13.5 1068.5C4.00002 1100.7 -2.19998 1150.5 0.900021 1170.3C1.50002 1174.3 2.70002 1188.1 3.50002 1201C4.40002 1213.9 5.30002 1226 5.60002 1227.7L6.10002 1231H640C988.7 1231 1274 1230.9 1274.1 1230.7C1274.9 1227.8 1279.4 1163.7 1279.4 1154C1279.5 1139.3 1277.1 1116 1273.9 1099.2C1251.8 982.7 1163 878.5 1026.5 809.1C977.3 784 918.9 762.5 863.7 749C851.1 745.9 849.7 745.3 850.5 744C850.8 743.5 855 740.5 859.8 737.4C950.5 678.3 1014.7 581.8 1034.4 474.7C1039.4 447.6 1040.5 434.7 1040.4 401C1040.4 366.2 1039 351.3 1033 321.8C1007.9 199.2 928.3 96.5 816 41.5C772.8 20.4 730.5 8.29998 679 2.39998C665.2 0.799982 620.1 -0.700018 619 0.399982Z" fill="white"/>
</svg>
